<?xml version="1.0" encoding="UTF-8" standalone="no"?>
<!DOCTYPE svg PUBLIC "-//W3C//DTD SVG 1.1//EN"
 "http://www.w3.org/Graphics/SVG/1.1/DTD/svg11.dtd">
<!-- Generated by graphviz version 2.47.3 (20210619.1520)
 -->
<!-- Title: dependencies Pages: 1 -->
<svg width="350pt" height="174pt"
 viewBox="0.00 0.00 350.00 173.80" xmlns="http://www.w3.org/2000/svg" xmlns:xlink="http://www.w3.org/1999/xlink">
<g id="graph0" class="graph" transform="scale(1 1) rotate(0) translate(4 169.8)">
<title>dependencies</title>
<polygon fill="white" stroke="transparent" points="-4,4 -4,-169.8 346,-169.8 346,4 -4,4"/>
<text text-anchor="middle" x="171" y="-8.2" font-family="sans-serif" font-size="14.00">dependencies</text>
<g id="clust1" class="cluster">
<title>cluster_MoviesModule</title>
<polygon fill="none" stroke="black" stroke-dasharray="1,5" points="8,-32.8 8,-157.8 334,-157.8 334,-32.8 8,-32.8"/>
</g>
<g id="clust6" class="cluster">
<title>cluster_MoviesModule_providers</title>
<polygon fill="none" stroke="black" points="16,-40.8 16,-92.8 326,-92.8 326,-40.8 16,-40.8"/>
</g>
<!-- MoviesService -->
<g id="node1" class="node">
<title>MoviesService</title>
<ellipse fill="#fdb462" stroke="black" cx="249" cy="-66.8" rx="68.92" ry="18"/>
<text text-anchor="middle" x="249" y="-62.6" font-family="Times,serif" font-size="14.00">MoviesService</text>
</g>
<!-- MoviesModule -->
<g id="node3" class="node">
<title>MoviesModule</title>
<polygon fill="#8dd3c7" stroke="black" points="221.55,-149.8 218.55,-153.8 197.55,-153.8 194.55,-149.8 120.45,-149.8 120.45,-113.8 221.55,-113.8 221.55,-149.8"/>
<text text-anchor="middle" x="171" y="-127.6" font-family="Times,serif" font-size="14.00">MoviesModule</text>
</g>
<!-- MoviesService&#45;&gt;MoviesModule -->
<g id="edge1" class="edge">
<title>MoviesService&#45;&gt;MoviesModule</title>
<path fill="none" stroke="black" d="M200.91,-79.95C200.91,-79.95 200.91,-103.49 200.91,-103.49"/>
<polygon fill="black" stroke="black" points="197.41,-103.49 200.91,-113.49 204.41,-103.49 197.41,-103.49"/>
</g>
<!-- TheaterService -->
<g id="node2" class="node">
<title>TheaterService</title>
<ellipse fill="#fdb462" stroke="black" cx="93" cy="-66.8" rx="69.46" ry="18"/>
<text text-anchor="middle" x="93" y="-62.6" font-family="Times,serif" font-size="14.00">TheaterService</text>
</g>
<!-- TheaterService&#45;&gt;MoviesModule -->
<g id="edge2" class="edge">
<title>TheaterService&#45;&gt;MoviesModule</title>
<path fill="none" stroke="black" d="M141.35,-79.95C141.35,-79.95 141.35,-103.49 141.35,-103.49"/>
<polygon fill="black" stroke="black" points="137.85,-103.49 141.35,-113.49 144.85,-103.49 137.85,-103.49"/>
</g>
</g>
</svg>
