<?xml version="1.0" encoding="UTF-8" standalone="no"?>
<!DOCTYPE svg PUBLIC "-//W3C//DTD SVG 1.1//EN"
 "http://www.w3.org/Graphics/SVG/1.1/DTD/svg11.dtd">
<!-- Generated by graphviz version 2.47.3 (20210619.1520)
 -->
<!-- Title: dependencies Pages: 1 -->
<svg width="495pt" height="174pt"
 viewBox="0.00 0.00 495.00 173.80" xmlns="http://www.w3.org/2000/svg" xmlns:xlink="http://www.w3.org/1999/xlink">
<g id="graph0" class="graph" transform="scale(1 1) rotate(0) translate(4 169.8)">
<title>dependencies</title>
<polygon fill="white" stroke="transparent" points="-4,4 -4,-169.8 491,-169.8 491,4 -4,4"/>
<text text-anchor="middle" x="243.5" y="-8.2" font-family="sans-serif" font-size="14.00">dependencies</text>
<g id="clust1" class="cluster">
<title>cluster_PaymentModule</title>
<polygon fill="none" stroke="black" stroke-dasharray="1,5" points="8,-32.8 8,-157.8 479,-157.8 479,-32.8 8,-32.8"/>
</g>
<g id="clust6" class="cluster">
<title>cluster_PaymentModule_providers</title>
<polygon fill="none" stroke="black" points="16,-40.8 16,-92.8 471,-92.8 471,-40.8 16,-40.8"/>
</g>
<!-- PaymentService -->
<g id="node1" class="node">
<title>PaymentService</title>
<ellipse fill="#fdb462" stroke="black" cx="389" cy="-66.8" rx="73.57" ry="18"/>
<text text-anchor="middle" x="389" y="-62.6" font-family="Times,serif" font-size="14.00">PaymentService</text>
</g>
<!-- PaymentModule -->
<g id="node4" class="node">
<title>PaymentModule</title>
<polygon fill="#8dd3c7" stroke="black" points="282.04,-149.8 279.04,-153.8 258.04,-153.8 255.04,-149.8 173.96,-149.8 173.96,-113.8 282.04,-113.8 282.04,-149.8"/>
<text text-anchor="middle" x="228" y="-127.6" font-family="Times,serif" font-size="14.00">PaymentModule</text>
</g>
<!-- PaymentService&#45;&gt;PaymentModule -->
<g id="edge1" class="edge">
<title>PaymentService&#45;&gt;PaymentModule</title>
<path fill="none" stroke="black" d="M389,-84.91C389,-104.14 389,-131.8 389,-131.8 389,-131.8 292.06,-131.8 292.06,-131.8"/>
<polygon fill="black" stroke="black" points="292.06,-128.3 282.06,-131.8 292.06,-135.3 292.06,-128.3"/>
</g>
<!-- TheaterService -->
<g id="node2" class="node">
<title>TheaterService</title>
<ellipse fill="#fdb462" stroke="black" cx="228" cy="-66.8" rx="69.46" ry="18"/>
<text text-anchor="middle" x="228" y="-62.6" font-family="Times,serif" font-size="14.00">TheaterService</text>
</g>
<!-- TheaterService&#45;&gt;PaymentModule -->
<g id="edge2" class="edge">
<title>TheaterService&#45;&gt;PaymentModule</title>
<path fill="none" stroke="black" d="M228,-84.91C228,-84.91 228,-103.79 228,-103.79"/>
<polygon fill="black" stroke="black" points="224.5,-103.79 228,-113.79 231.5,-103.79 224.5,-103.79"/>
</g>
<!-- UserService -->
<g id="node3" class="node">
<title>UserService</title>
<ellipse fill="#fdb462" stroke="black" cx="82" cy="-66.8" rx="58.44" ry="18"/>
<text text-anchor="middle" x="82" y="-62.6" font-family="Times,serif" font-size="14.00">UserService</text>
</g>
<!-- UserService&#45;&gt;PaymentModule -->
<g id="edge3" class="edge">
<title>UserService&#45;&gt;PaymentModule</title>
<path fill="none" stroke="black" d="M82,-84.91C82,-104.14 82,-131.8 82,-131.8 82,-131.8 163.63,-131.8 163.63,-131.8"/>
<polygon fill="black" stroke="black" points="163.64,-135.3 173.63,-131.8 163.63,-128.3 163.64,-135.3"/>
</g>
</g>
</svg>
