<?xml version="1.0" encoding="UTF-8" standalone="no"?>
<!DOCTYPE svg PUBLIC "-//W3C//DTD SVG 1.1//EN"
 "http://www.w3.org/Graphics/SVG/1.1/DTD/svg11.dtd">
<!-- Generated by graphviz version 2.47.3 (20210619.1520)
 -->
<!-- Title: dependencies Pages: 1 -->
<svg width="646pt" height="174pt"
 viewBox="0.00 0.00 646.00 173.80" xmlns="http://www.w3.org/2000/svg" xmlns:xlink="http://www.w3.org/1999/xlink">
<g id="graph0" class="graph" transform="scale(1 1) rotate(0) translate(4 169.8)">
<title>dependencies</title>
<polygon fill="white" stroke="transparent" points="-4,4 -4,-169.8 642,-169.8 642,4 -4,4"/>
<text text-anchor="middle" x="319" y="-8.2" font-family="sans-serif" font-size="14.00">dependencies</text>
<g id="clust1" class="cluster">
<title>cluster_AppModule</title>
<polygon fill="none" stroke="black" stroke-dasharray="1,5" points="8,-32.8 8,-157.8 630,-157.8 630,-32.8 8,-32.8"/>
</g>
<g id="clust3" class="cluster">
<title>cluster_AppModule_imports</title>
<polygon fill="none" stroke="black" points="154,-40.8 154,-92.8 622,-92.8 622,-40.8 154,-40.8"/>
</g>
<g id="clust6" class="cluster">
<title>cluster_AppModule_providers</title>
<polygon fill="none" stroke="black" points="16,-40.8 16,-92.8 146,-92.8 146,-40.8 16,-40.8"/>
</g>
<!-- MoviesModule -->
<g id="node1" class="node">
<title>MoviesModule</title>
<polygon fill="#8dd3c7" stroke="black" points="613.55,-84.8 610.55,-88.8 589.55,-88.8 586.55,-84.8 512.45,-84.8 512.45,-48.8 613.55,-48.8 613.55,-84.8"/>
<text text-anchor="middle" x="563" y="-62.6" font-family="Times,serif" font-size="14.00">MoviesModule</text>
</g>
<!-- AppModule -->
<g id="node5" class="node">
<title>AppModule</title>
<polygon fill="#8dd3c7" stroke="black" points="358.66,-149.8 355.66,-153.8 334.66,-153.8 331.66,-149.8 275.34,-149.8 275.34,-113.8 358.66,-113.8 358.66,-149.8"/>
<text text-anchor="middle" x="317" y="-127.6" font-family="Times,serif" font-size="14.00">AppModule</text>
</g>
<!-- MoviesModule&#45;&gt;AppModule -->
<g id="edge1" class="edge">
<title>MoviesModule&#45;&gt;AppModule</title>
<path fill="none" stroke="black" d="M563,-85.08C563,-106.12 563,-137.8 563,-137.8 563,-137.8 368.73,-137.8 368.73,-137.8"/>
<polygon fill="black" stroke="black" points="368.73,-134.3 358.73,-137.8 368.73,-141.3 368.73,-134.3"/>
</g>
<!-- PaymentModule -->
<g id="node2" class="node">
<title>PaymentModule</title>
<polygon fill="#8dd3c7" stroke="black" points="494.04,-84.8 491.04,-88.8 470.04,-88.8 467.04,-84.8 385.96,-84.8 385.96,-48.8 494.04,-48.8 494.04,-84.8"/>
<text text-anchor="middle" x="440" y="-62.6" font-family="Times,serif" font-size="14.00">PaymentModule</text>
</g>
<!-- PaymentModule&#45;&gt;AppModule -->
<g id="edge2" class="edge">
<title>PaymentModule&#45;&gt;AppModule</title>
<path fill="none" stroke="black" d="M440,-84.82C440,-102.17 440,-125.8 440,-125.8 440,-125.8 368.99,-125.8 368.99,-125.8"/>
<polygon fill="black" stroke="black" points="368.99,-122.3 358.99,-125.8 368.99,-129.3 368.99,-122.3"/>
</g>
<!-- TheaterModule -->
<g id="node3" class="node">
<title>TheaterModule</title>
<polygon fill="#8dd3c7" stroke="black" points="368.3,-84.8 365.3,-88.8 344.3,-88.8 341.3,-84.8 265.7,-84.8 265.7,-48.8 368.3,-48.8 368.3,-84.8"/>
<text text-anchor="middle" x="317" y="-62.6" font-family="Times,serif" font-size="14.00">TheaterModule</text>
</g>
<!-- TheaterModule&#45;&gt;AppModule -->
<g id="edge3" class="edge">
<title>TheaterModule&#45;&gt;AppModule</title>
<path fill="none" stroke="black" d="M317,-84.91C317,-84.91 317,-103.79 317,-103.79"/>
<polygon fill="black" stroke="black" points="313.5,-103.79 317,-113.79 320.5,-103.79 313.5,-103.79"/>
</g>
<!-- UserModule -->
<g id="node4" class="node">
<title>UserModule</title>
<polygon fill="#8dd3c7" stroke="black" points="247.98,-84.8 244.98,-88.8 223.98,-88.8 220.98,-84.8 162.02,-84.8 162.02,-48.8 247.98,-48.8 247.98,-84.8"/>
<text text-anchor="middle" x="205" y="-62.6" font-family="Times,serif" font-size="14.00">UserModule</text>
</g>
<!-- UserModule&#45;&gt;AppModule -->
<g id="edge4" class="edge">
<title>UserModule&#45;&gt;AppModule</title>
<path fill="none" stroke="black" d="M205,-84.82C205,-102.17 205,-125.8 205,-125.8 205,-125.8 265.3,-125.8 265.3,-125.8"/>
<polygon fill="black" stroke="black" points="265.3,-129.3 275.3,-125.8 265.3,-122.3 265.3,-129.3"/>
</g>
<!-- AppService -->
<g id="node6" class="node">
<title>AppService</title>
<ellipse fill="#fdb462" stroke="black" cx="81" cy="-66.8" rx="56.74" ry="18"/>
<text text-anchor="middle" x="81" y="-62.6" font-family="Times,serif" font-size="14.00">AppService</text>
</g>
<!-- AppService&#45;&gt;AppModule -->
<g id="edge5" class="edge">
<title>AppService&#45;&gt;AppModule</title>
<path fill="none" stroke="black" d="M81,-85.08C81,-106.12 81,-137.8 81,-137.8 81,-137.8 265.08,-137.8 265.08,-137.8"/>
<polygon fill="black" stroke="black" points="265.08,-141.3 275.08,-137.8 265.08,-134.3 265.08,-141.3"/>
</g>
</g>
</svg>
